# xmcd CD database file
#
# Track frame offsets:
#	185
#	12717
#	23890
#	37645
#	51815
#	63887
#	76912
#	91877
#	106220
#	119212
#	132665
#	146610
#	159617
#	172157
#	185952
#	199055
#
# Disc length: 2829 seconds
#
# Revision: 0
# Processed by: cddbd v1.5.2PL0 Copyright (c) Steve Scherf et al.
# Submitted via: CDex 1.99.1
#
DISCID=e50b0b10
DTITLE=Memphis Minnie - City Blues
DYEAR=1900
DGENRE=Blues
TTITLE0=Dirty Mother For You
TTITLE1=Keep On Goin'
TTITLE2=Jockey Man Blues
TTITLE3=He's In The Ring (1)
TTITLE4=You Wrecked My Happy Home
TTITLE5=Selling My Pork Chops
TTITLE6=Doctor, Doctor Blues
TTITLE7=I'm A Gamblin' Woman
TTITLE8=Caught Me Wrong Again
TTITLE9=Black Cat Blues
TTITLE10=Draggin' My Heart Around
TTITLE11=Hot Stuff
TTITLE12=Living The Best I Can
TTITLE13=Keep On Sailing
TTITLE14=I've Been Treated Wrong
TTITLE15=My Black Buffalo
EXTD=
EXTT0=
EXTT1=
EXTT2=
EXTT3=
EXTT4=
EXTT5=
EXTT6=
EXTT7=
EXTT8=
EXTT9=
EXTT10=
EXTT11=
EXTT12=
EXTT13=
EXTT14=
EXTT15=
PLAYORDER=
